<?xml version="1.0" encoding="UTF-8" standalone="no"?>
<!DOCTYPE svg PUBLIC "-//W3C//DTD SVG 1.1//EN" "http://www.w3.org/Graphics/SVG/1.1/DTD/svg11.dtd">
<svg width="100%" height="100%" viewBox="0 0 164 45" version="1.1" xmlns="http://www.w3.org/2000/svg" xmlns:xlink="http://www.w3.org/1999/xlink" xml:space="preserve" xmlns:serif="http://www.serif.com/" style="fill-rule:evenodd;clip-rule:evenodd;stroke-linecap:round;stroke-linejoin:round;">
    <g>
        <path id="path68640" d="M12.251,0.056c-0.879,-0.235 -1.793,0.292 -2.029,1.171l-6.223,23.229c-0.031,0.113 -0.015,0.234 0.043,0.336l3.134,5.426c0.058,0.102 0.154,0.176 0.267,0.207l18.015,4.826c0.879,0.235 1.793,-0.292 2.029,-1.171l7.056,-26.335c0.236,-0.88 -0.292,-1.795 -1.171,-2.031l-8.782,-2.352l-5.777,-1.548l-6.562,-1.758Zm-0.228,0.853l6.561,1.757l5.777,1.548l8.782,2.354c0.422,0.113 0.661,0.526 0.548,0.948l-7.057,26.335c-0.112,0.421 -0.526,0.659 -0.948,0.546l-17.837,-4.779l-2.951,-5.109l6.178,-23.053c0.113,-0.421 0.525,-0.66 0.947,-0.547Z" style="fill:#ff2b02;fill-rule:nonzero;"/>
        <path id="path22096" d="M18.698,2.24l-6.561,-1.758c-0.65,-0.174 -1.314,0.209 -1.488,0.86l-6.224,23.229l3.133,5.426l18.014,4.827c0.65,0.175 1.314,-0.209 1.488,-0.859l7.057,-26.335c0.174,-0.651 -0.209,-1.314 -0.859,-1.489l-8.782,-2.353l-5.778,-1.548Z" style="fill:#ff2b02;fill-rule:nonzero;"/>
        <g id="g22110">
            <path id="path22106" d="M40.531,17.809l-18.936,-10.933c-0.583,-0.336 -1.323,-0.138 -1.66,0.445l-12.024,20.827l1.622,6.053l16.151,9.325c0.583,0.336 1.323,0.138 1.66,-0.445l13.632,-23.612c0.337,-0.583 0.138,-1.323 -0.445,-1.66Z" style="fill:#ff7e02;fill-rule:nonzero;"/>
            <path id="path68633" d="M40.531,17.809l-18.936,-10.933c-0.583,-0.336 -1.323,-0.138 -1.66,0.445l-12.024,20.827l1.622,6.053l16.151,9.325c0.583,0.336 1.323,0.138 1.66,-0.445l13.632,-23.612c0.337,-0.583 0.138,-1.323 -0.445,-1.66Z" style="fill:none;fill-rule:nonzero;stroke:#ff7e02;stroke-width:0.88px;"/>
        </g>
        <path id="path22112" d="M23.522,11.68l-21.865,-0c-0.673,-0 -1.215,0.542 -1.215,1.216l0,23.47l5.009,5.009l18.071,-0c0.674,-0 1.216,-0.542 1.216,-1.215l0,-27.264c0,-0.674 -0.542,-1.216 -1.216,-1.216Z" style="fill:#ffbd02;fill-rule:nonzero;"/>
        <path id="path68629" d="M1.658,11.239c-0.911,-0 -1.658,0.746 -1.658,1.656l0,23.472c0,0.117 0.046,0.229 0.129,0.312l5.009,5.009c0.083,0.083 0.196,0.129 0.313,0.129l18.072,-0c0.91,-0 1.656,-0.746 1.656,-1.657l0,-27.265c0,-0.91 -0.746,-1.656 -1.656,-1.656l-21.865,-0Zm0,0.883l21.865,-0c0.436,-0 0.773,0.337 0.773,0.773l0,27.265c0,0.437 -0.337,0.774 -0.773,0.774l-17.889,-0l-4.751,-4.75l0,-23.289c0,-0.436 0.338,-0.773 0.775,-0.773Z" style="fill:#ffbd02;fill-rule:nonzero;"/>
        <path id="path22114" d="M5.451,41.375l0.382,-5.212l-5.391,0.203l5.009,5.009Z" style="fill:#d9a100;fill-rule:nonzero;"/>
        <path id="path68631" d="M5.819,35.779l-5.392,0.204c-0.205,0.008 -0.369,0.178 -0.369,0.383c0,0.102 0.04,0.2 0.112,0.272l5.01,5.008c0.072,0.072 0.169,0.112 0.271,0.112c0.2,-0 0.368,-0.155 0.383,-0.354l0.382,-5.213c0.001,-0.01 0.001,-0.019 0.001,-0.028c0,-0.211 -0.173,-0.384 -0.383,-0.384l-0.015,-0Zm-0.401,0.784l-0.29,3.948l-3.792,-3.794l4.082,-0.154Z" style="fill:#d9a100;fill-rule:nonzero;"/>
    </g>
    <g>
        <text x="29.264px" y="34.691px" style="font-family:'UniNeue-Trial-Bold', 'Uni Neue-Trial';font-weight:700;font-size:27px;">tak</text>
        <text x="65.363px" y="34.691px" style="font-family:'UniNeue-Trial-Bold', 'Uni Neue-Trial';font-weight:700;font-size:27px;">e homes</text>
    </g>
</svg>
